<?xml version="1.0" encoding="UTF-8" standalone="no"?><!DOCTYPE svg PUBLIC "-//W3C//DTD SVG 1.1//EN" "http://www.w3.org/Graphics/SVG/1.1/DTD/svg11.dtd"><svg width="100%" height="100%" viewBox="0 0 800 800" version="1.1" xmlns="http://www.w3.org/2000/svg" xmlns:xlink="http://www.w3.org/1999/xlink" xml:space="preserve" xmlns:serif="http://www.serif.com/" style="fill-rule:evenodd;clip-rule:evenodd;stroke-linejoin:round;stroke-miterlimit:2;"><path d="M691.667,180.255c-0,-36.264 -29.442,-65.705 -65.706,-65.705l-416.136,-0c-36.264,-0 -65.706,29.441 -65.706,65.705l0,458.206c0,36.264 29.442,65.706 65.706,65.706l416.136,-0c36.264,-0 65.706,-29.442 65.706,-65.706l-0,-458.206Z" style="fill:#2f5d72;"/><path d="M691.667,180.255c-0,-36.264 -29.442,-65.705 -65.706,-65.705l-416.136,-0c-36.264,-0 -65.706,29.441 -65.706,65.705l0,458.206c0,36.264 29.442,65.706 65.706,65.706l416.136,-0c36.264,-0 65.706,-29.442 65.706,-65.706l-0,-458.206Zm-6.25,0l-0,458.206c-0,32.814 -26.642,59.456 -59.456,59.456c-0,-0 -416.136,-0 -416.136,-0c-32.814,-0 -59.456,-26.642 -59.456,-59.456c0,-0 0,-458.206 0,-458.206c0,-32.814 26.642,-59.455 59.456,-59.455c0,-0 416.136,-0 416.136,-0c32.814,-0 59.456,26.641 59.456,59.455Z" style="fill:#2f5d72;"/><path d="M674.498,155.44c-0,-37.497 -30.443,-67.94 -67.94,-67.94l-430.285,0c-37.497,0 -67.94,30.443 -67.94,67.94l0,463.526c0,37.497 30.443,67.939 67.94,67.939l430.285,0c37.497,0 67.94,-30.442 67.94,-67.939l-0,-463.526Z" style="fill:#fff;"/><path d="M674.498,155.44c-0,-37.497 -30.443,-67.94 -67.94,-67.94l-430.285,0c-37.497,0 -67.94,30.443 -67.94,67.94l0,463.526c0,37.497 30.443,67.939 67.94,67.939l430.285,0c37.497,0 67.94,-30.442 67.94,-67.939l-0,-463.526Zm-29.167,-0l-0,463.526c-0,21.399 -17.374,38.773 -38.773,38.773l-430.285,-0c-21.399,-0 -38.773,-17.374 -38.773,-38.773c0,-0 0,-463.526 0,-463.526c0,-21.4 17.374,-38.773 38.773,-38.773l430.285,-0c21.399,-0 38.773,17.373 38.773,38.773Z" style="fill:#3f3f3f;"/></svg>